<mxfile host="app.diagrams.net" agent="Mozilla/5.0 (Windows NT 10.0; Win64; x64) AppleWebKit/537.36 (KHTML, like Gecko) Chrome/132.0.0.0 Safari/537.36 OPR/117.0.0.0" version="26.1.3">
  <diagram name="PÃ¡gina-1" id="yDpR5EHIjNzUHbKX3QDg">
    <mxGraphModel grid="1" page="1" gridSize="10" guides="1" tooltips="1" connect="1" arrows="1" fold="1" pageScale="1" pageWidth="827" pageHeight="1169" math="0" shadow="0">
      <root>
        <mxCell id="0" />
        <mxCell id="1" parent="0" />
        <mxCell id="OAjVt0UW47qSXvLEy86X-6" value="" style="edgeStyle=orthogonalEdgeStyle;rounded=0;orthogonalLoop=1;jettySize=auto;html=1;" edge="1" parent="1" source="OAjVt0UW47qSXvLEy86X-4" target="OAjVt0UW47qSXvLEy86X-5">
          <mxGeometry relative="1" as="geometry" />
        </mxCell>
        <mxCell id="OAjVt0UW47qSXvLEy86X-4" value="inicio" style="ellipse;whiteSpace=wrap;html=1;" vertex="1" parent="1">
          <mxGeometry x="354" y="50" width="120" height="80" as="geometry" />
        </mxCell>
        <mxCell id="OAjVt0UW47qSXvLEy86X-8" value="" style="edgeStyle=orthogonalEdgeStyle;rounded=0;orthogonalLoop=1;jettySize=auto;html=1;" edge="1" parent="1" source="OAjVt0UW47qSXvLEy86X-5" target="OAjVt0UW47qSXvLEy86X-7">
          <mxGeometry relative="1" as="geometry" />
        </mxCell>
        <mxCell id="OAjVt0UW47qSXvLEy86X-5" value="cotacao, valorreais" style="shape=parallelogram;perimeter=parallelogramPerimeter;whiteSpace=wrap;html=1;fixedSize=1;" vertex="1" parent="1">
          <mxGeometry x="311" y="150" width="206" height="60" as="geometry" />
        </mxCell>
        <mxCell id="OAjVt0UW47qSXvLEy86X-10" value="" style="edgeStyle=orthogonalEdgeStyle;rounded=0;orthogonalLoop=1;jettySize=auto;html=1;" edge="1" parent="1" source="OAjVt0UW47qSXvLEy86X-7" target="OAjVt0UW47qSXvLEy86X-9">
          <mxGeometry relative="1" as="geometry" />
        </mxCell>
        <mxCell id="OAjVt0UW47qSXvLEy86X-7" value="resultado = valorreais / cotacao" style="whiteSpace=wrap;html=1;" vertex="1" parent="1">
          <mxGeometry x="325" y="230" width="177" height="60" as="geometry" />
        </mxCell>
        <mxCell id="OAjVt0UW47qSXvLEy86X-14" value="" style="edgeStyle=orthogonalEdgeStyle;rounded=0;orthogonalLoop=1;jettySize=auto;html=1;" edge="1" parent="1" source="OAjVt0UW47qSXvLEy86X-9" target="OAjVt0UW47qSXvLEy86X-13">
          <mxGeometry relative="1" as="geometry" />
        </mxCell>
        <mxCell id="OAjVt0UW47qSXvLEy86X-9" value="resultado" style="shape=document;whiteSpace=wrap;html=1;boundedLbl=1;" vertex="1" parent="1">
          <mxGeometry x="354" y="310" width="120" height="80" as="geometry" />
        </mxCell>
        <mxCell id="OAjVt0UW47qSXvLEy86X-13" value="fim" style="ellipse;whiteSpace=wrap;html=1;" vertex="1" parent="1">
          <mxGeometry x="374" y="410" width="80" height="80" as="geometry" />
        </mxCell>
      </root>
    </mxGraphModel>
  </diagram>
</mxfile>
